<svg width="66" height="57" viewBox="0 0 66 57" fill="none" xmlns="http://www.w3.org/2000/svg">
<path d="M11 47.5C9.4875 47.5 8.19271 47.0349 7.11563 46.1047C6.03854 45.1745 5.5 44.0562 5.5 42.75V14.25C5.5 12.9437 6.03854 11.8255 7.11563 10.8953C8.19271 9.9651 9.4875 9.5 11 9.5H55C56.5125 9.5 57.8073 9.9651 58.8844 10.8953C59.9615 11.8255 60.5 12.9437 60.5 14.25V42.75C60.5 44.0562 59.9615 45.1745 58.8844 46.1047C57.8073 47.0349 56.5125 47.5 55 47.5H11ZM33 30.875L11 19V42.75H55V19L33 30.875ZM33 26.125L55 14.25H11L33 26.125ZM11 19V14.25V42.75V19Z" fill="#007AFF"/>
</svg>
