<svg width="73" height="76" viewBox="0 0 73 76" fill="none" xmlns="http://www.w3.org/2000/svg">
<path d="M69.9583 9.5001C67.0456 11.6391 63.8206 13.2751 60.4075 14.3451C58.5756 12.1522 56.1411 10.598 53.4331 9.89254C50.7251 9.18711 47.8743 9.36456 45.2663 10.4009C42.6584 11.4372 40.419 13.2824 38.8511 15.6869C37.2833 18.0914 36.4626 20.9392 36.5 23.8451V27.0118C31.1547 27.1561 25.858 25.9218 21.0818 23.419C16.3056 20.9162 12.198 17.2225 9.12499 12.6668C9.12499 12.6668 -3.04168 41.1668 24.3333 53.8334C18.0691 58.2603 10.6068 60.48 3.04166 60.1668C30.4167 76.0001 63.875 60.1668 63.875 23.7501C63.8722 22.868 63.7907 21.9882 63.6317 21.1218C66.736 17.9345 68.9267 13.9104 69.9583 9.5001Z" stroke="#007AFF" stroke-width="4.83168" stroke-linecap="round" stroke-linejoin="round"/>
</svg>
