<svg width="261" height="59" viewBox="0 0 261 59" fill="none" xmlns="http://www.w3.org/2000/svg">
<g filter="url(#filter0_d_27_42)">
<path d="M21.3912 6.17142V51H15.1411V6.17142H4.07761V0.711529H32.4547V6.17142H21.3912ZM45.7087 51C41.4941 51 38.4049 50.114 36.4413 48.3419C34.4776 46.5219 33.4958 43.5765 33.4958 39.5055V26.5742C33.4958 22.4553 34.3818 19.5098 36.1539 17.7378C37.926 15.9657 40.8714 15.0797 44.9903 15.0797H46.93C50.3305 15.0797 52.8928 16.0375 54.617 17.9533C56.389 19.8211 57.2751 22.575 57.2751 26.215V35.5543H39.6023V40.9423C39.6023 42.427 40.0572 43.5765 40.9672 44.3907C41.8772 45.2049 43.2182 45.6119 44.9903 45.6119H54.9762V51H45.7087ZM51.3123 30.1662V24.7782C51.3123 23.5329 50.9052 22.5032 50.091 21.689C49.2768 20.8748 48.2471 20.4677 47.0018 20.4677H44.2719C42.5477 20.4677 41.3264 20.8748 40.608 21.689C39.9375 22.4553 39.6023 23.6048 39.6023 25.1374V30.1662H51.3123ZM79.1736 51C74.9589 51 71.8698 50.114 69.9061 48.3419C67.9425 46.5219 66.9606 43.5765 66.9606 39.5055V26.5742C66.9606 22.5511 67.9425 19.6296 69.9061 17.8096C71.9177 15.9896 75.0068 15.0797 79.1736 15.0797H87.0042V20.4677H78.4552C76.6831 20.4677 75.3421 20.8748 74.4321 21.689C73.5221 22.5032 73.0671 23.6527 73.0671 25.1374V40.9423C73.0671 42.427 73.5221 43.5765 74.4321 44.3907C75.3421 45.2049 76.6831 45.6119 78.4552 45.6119H87.0042V51H79.1736ZM96.3732 0.711529H102.48V16.5165C103.917 15.5586 105.713 15.0797 107.868 15.0797H109.736C113.615 15.0797 116.489 15.9896 118.356 17.8096C120.272 19.6296 121.23 22.5511 121.23 26.5742V51H115.124V25.1374C115.124 23.7005 114.693 22.575 113.831 21.7608C113.016 20.8988 111.891 20.4677 110.454 20.4677H107.149C105.617 20.4677 104.443 20.8748 103.629 21.689C102.863 22.4553 102.48 23.2934 102.48 24.2034V51H96.3732V0.711529Z" fill="#0B99FF"/>
<path d="M139.956 6.17142V51H133.706V6.17142H122.643V0.711529H151.02V6.17142H139.956ZM153.551 15.0797H159.298V17.0194C160.879 15.7262 162.795 15.0797 165.046 15.0797H170.29V20.8269H164.327C162.747 20.8269 161.573 21.3537 160.807 22.4074C160.041 23.4611 159.658 24.4908 159.658 25.4966V51H153.551V15.0797ZM195.363 49.3477C193.782 50.4492 191.867 51 189.616 51H188.61C184.731 51 181.833 50.09 179.917 48.2701C178.049 46.4501 177.115 43.5286 177.115 39.5055V15.0797H183.222V40.9423C183.222 42.3791 183.629 43.5286 184.443 44.3907C185.305 45.2049 186.455 45.6119 187.892 45.6119H190.334C191.867 45.6119 192.992 45.2288 193.711 44.4625C194.477 43.6962 194.908 42.8341 195.004 41.8762V15.0797H201.11V51H195.363V49.3477ZM231.589 42.0199C231.589 45.0372 230.655 47.2882 228.787 48.7729C226.967 50.2576 224.309 51 220.813 51H211.546V45.6119H221.531C222.825 45.6119 223.806 45.3485 224.477 44.8217C225.147 44.247 225.483 43.4328 225.483 42.3791V38.5716C225.483 36.4163 224.453 35.3387 222.394 35.3387H221.172C217.82 35.3387 215.305 34.6203 213.629 33.1835C212.001 31.6988 211.186 29.376 211.186 26.215V24.1316C211.186 20.9227 212.096 18.6238 213.916 17.2349C215.736 15.7981 218.418 15.0797 221.963 15.0797H230.152V20.4677H221.244C220.047 20.4677 219.089 20.7551 218.37 21.3298C217.652 21.8566 217.293 22.6469 217.293 23.7005V26.2868C217.293 27.3884 217.604 28.2026 218.227 28.7294C218.897 29.2562 219.735 29.5196 220.741 29.5196H221.747C224.956 29.5196 227.398 30.3099 229.075 31.8904C230.751 33.423 231.589 35.7219 231.589 38.7871V42.0199ZM249.22 51C246.777 51 244.909 50.2098 243.616 48.6293C242.323 47.0488 241.677 44.9654 241.677 42.3791V20.4677H237.007V15.0797H241.677V6.45879H247.783V15.0797H256.117V20.4677H247.783V42.7383C247.783 43.792 248.046 44.5343 248.573 44.9654C249.1 45.3964 249.914 45.6119 251.016 45.6119H256.117V51H249.22Z" fill="#5CFB06"/>
</g>
<defs>
<filter id="filter0_d_27_42" x="0.0776367" y="0.711548" width="260.039" height="58.2885" filterUnits="userSpaceOnUse" color-interpolation-filters="sRGB">
<feFlood flood-opacity="0" result="BackgroundImageFix"/>
<feColorMatrix in="SourceAlpha" type="matrix" values="0 0 0 0 0 0 0 0 0 0 0 0 0 0 0 0 0 0 127 0" result="hardAlpha"/>
<feOffset dy="4"/>
<feGaussianBlur stdDeviation="2"/>
<feComposite in2="hardAlpha" operator="out"/>
<feColorMatrix type="matrix" values="0 0 0 0 0 0 0 0 0 0 0 0 0 0 0 0 0 0 0.25 0"/>
<feBlend mode="normal" in2="BackgroundImageFix" result="effect1_dropShadow_27_42"/>
<feBlend mode="normal" in="SourceGraphic" in2="effect1_dropShadow_27_42" result="shape"/>
</filter>
</defs>
</svg>
